<svg width="311" height="10" viewBox="0 0 311 10" fill="none" xmlns="http://www.w3.org/2000/svg">
<path d="M290.217 1.05737C276.115 0.834497 241.229 0.522478 214.508 1.05737H204.117C199.367 1.05737 197.684 1.33589 197.437 1.47516H159.582H154.387H124.697H113.563C110.347 1.50302 101.539 1.54202 92.0382 1.47516C82.5375 1.4083 84.6157 1.16877 86.8425 1.05737H72.7398H65.3174C55.4208 0.918058 33.4009 0.539146 24.494 0.137979C18.5561 -0.263188 5.69052 0.305132 0 0.639438C2.72156 1.05732 7.57089 1.9098 5.19571 1.97666C2.82053 2.04352 4.20605 2.39454 5.19571 2.5617L0 3.31388V4.81826V5.31972V6.57337V7.1584L8.16467 7.99416L5.19571 8.24489V9.24781H11.8759H31.9165H65.3174L95.0072 10H143.995H214.508H296.155L311 8.24489V5.31972L306.547 2.5617L290.217 1.05737Z" fill="#3366E9"/>
</svg>
