<svg width="810" height="116" viewBox="0 0 810 116" fill="none" xmlns="http://www.w3.org/2000/svg">
<path d="M52 8C23.2839 8 0 31.6578 0 60.8105C0 84.1464 14.9036 103.919 35.5643 110.908C35.8893 110.977 36.1679 111 36.4464 111C38.3732 111 39.1161 109.598 39.1161 108.379C39.1161 107.115 39.0696 103.804 39.0464 99.3895C37.0964 99.8263 35.3554 100.01 33.8 100.01C23.7946 100.01 21.5196 92.3083 21.5196 92.3083C19.1518 86.2156 15.7393 84.5833 15.7393 84.5833C11.2125 81.4335 15.7161 81.3415 16.0643 81.3415H16.0875C21.3107 81.8013 24.05 86.8134 24.05 86.8134C26.65 91.3196 30.1321 92.5842 33.2429 92.5842C35.6804 92.5842 37.8857 91.8025 39.1857 91.2047C39.65 87.802 40.9964 85.4799 42.4821 84.1464C30.9446 82.813 18.8036 78.2837 18.8036 58.0516C18.8036 52.2808 20.8232 47.5676 24.1429 43.8891C23.6089 42.5556 21.8214 37.1757 24.6536 29.9105C24.6536 29.9105 25.025 29.7955 25.8143 29.7955C27.6946 29.7955 31.9429 30.5083 38.9536 35.3364C43.1089 34.1638 47.5429 33.5891 51.9768 33.5661C56.3875 33.5891 60.8446 34.1638 65 35.3364C72.0107 30.5083 76.2589 29.7955 78.1393 29.7955C78.9286 29.7955 79.3 29.9105 79.3 29.9105C82.1321 37.1757 80.3446 42.5556 79.8107 43.8891C83.1304 47.5906 85.15 52.3038 85.15 58.0516C85.15 78.3297 72.9857 82.79 61.4018 84.1004C63.2589 85.7328 64.9304 88.9516 64.9304 93.8717C64.9304 100.93 64.8607 106.632 64.8607 108.356C64.8607 109.598 65.5804 111 67.5071 111C67.7857 111 68.1107 110.977 68.4357 110.908C89.1196 103.919 104 84.1234 104 60.8105C104 31.6578 80.7161 8 52 8Z" fill="white"/>
<path d="M810 28.138C805.686 30.0229 801.074 31.2958 796.215 31.8833C801.174 28.9458 804.992 24.2948 806.777 18.7625C802.14 21.4797 797.008 23.4625 791.529 24.5151C787.14 19.8885 780.893 17 774 17C760.736 17 750 27.624 750 40.7203C750 42.5807 750.198 44.3922 750.62 46.1302C730.661 45.151 712.959 35.7021 701.132 21.3328C699.074 24.8333 697.884 28.9214 697.884 33.2542C697.884 41.4792 702.149 48.7495 708.595 53.0089C704.628 52.9109 700.909 51.8339 697.686 50.0469V50.3406C697.686 61.8458 705.967 71.4172 716.95 73.5958C714.942 74.1344 712.81 74.4281 710.628 74.4281C709.091 74.4281 707.579 74.2812 706.116 73.9875C709.165 83.412 718.041 90.2662 728.554 90.462C720.347 96.8266 709.983 100.621 698.727 100.621C696.793 100.621 694.884 100.498 693 100.278C703.587 107.083 716.207 111 729.744 111C773.95 111 798.099 74.8443 798.099 43.4865C798.099 42.4583 798.074 41.4302 798.025 40.4266C802.711 37.0729 806.777 32.9115 810 28.138Z" fill="white"/>
<path d="M325.037 5H228.962C225.672 5 223 7.6224 223 10.8521V105.148C223 108.378 225.672 111 228.962 111H277V69.0417H264.091V53.5833H277V42.1552C277 28.4635 286.675 21.0104 299.134 21.0104C305.097 21.0104 311.509 21.4521 313 21.6453V35.9443H303.072C296.294 35.9443 295 39.0911 295 43.7286V53.5833H311.144L309.034 69.0417H295V111H325.037C328.328 111 331 108.378 331 105.148V10.8521C331 7.6224 328.328 5 325.037 5Z" fill="white"/>
<path d="M564.084 0H460.594C454.942 0 450 3.80724 450 9.03465V106.059C450 111.316 454.942 116 460.594 116H564.051C569.736 116 574 111.286 574 106.059V9.03465C574.032 3.80724 569.736 0 564.084 0ZM488.437 96.6918H470.672V45.0221H488.437V96.6918ZM480.168 37.1659H480.039C474.354 37.1659 470.672 33.2076 470.672 28.2521C470.672 23.206 474.451 19.3384 480.265 19.3384C486.079 19.3384 489.632 23.1758 489.761 28.2521C489.761 33.2076 486.079 37.1659 480.168 37.1659ZM553.36 96.6918H535.595V68.4397C535.595 61.6713 533.011 57.0482 526.583 57.0482C521.674 57.0482 518.767 60.1605 517.475 63.1821C516.99 64.2699 516.861 65.7505 516.861 67.2613V96.6918H499.096V45.0221H516.861V52.2136C519.445 48.769 523.483 43.8135 532.882 43.8135C544.542 43.8135 553.36 51.005 553.36 66.5059V96.6918Z" fill="white"/>
</svg>
