<svg width="1173" height="813" viewBox="0 0 1173 813" fill="none" xmlns="http://www.w3.org/2000/svg">
<path d="M1163.3 99.5348L859.927 408.545C857.671 410.8 857.671 414.184 859.927 416.439L1072.23 642.557C1086.61 656.937 1086.61 680.056 1072.23 694.435C1065.18 701.484 1055.6 705.149 1046.29 705.149C1036.99 705.149 1027.4 701.484 1020.35 694.435L808.895 469.162C806.64 466.907 802.974 466.907 800.719 469.162L749.123 521.604C705.986 565.305 648.751 589.552 587.288 589.834C524.978 590.116 465.77 563.895 422.069 519.63L372.447 469.162C370.191 466.907 366.526 466.907 364.271 469.162L152.813 694.435C145.765 701.484 136.179 705.149 126.874 705.149C117.57 705.149 107.984 701.484 100.936 694.435C86.5566 680.056 86.5566 656.937 100.936 642.557L313.239 416.439C315.213 414.184 315.213 410.8 313.239 408.545L9.58607 99.5348C5.92081 95.8695 0 98.407 0 103.482V721.784C0 771.406 40.5998 812.005 90.2218 812.005H1082.66C1132.28 812.005 1172.88 771.406 1172.88 721.784V103.482C1172.88 98.407 1166.68 96.1515 1163.3 99.5348Z" fill="#0B096F"/>
<path d="M586.434 516.238C628.162 516.238 667.352 499.885 696.674 469.999L1139.04 19.736C1123.54 7.33052 1104.36 0 1083.22 0H89.9322C68.7864 0 49.3324 7.33052 34.1074 19.736L476.476 469.999C505.517 499.603 544.707 516.238 586.434 516.238Z" fill="#0B096F"/>
</svg>
