<svg width="244" height="7" viewBox="0 0 244 7" fill="none" xmlns="http://www.w3.org/2000/svg">
<path d="M227.695 0.740157C216.63 0.584148 189.26 0.365735 168.296 0.740157H160.143C156.416 0.740157 155.096 0.935126 154.902 1.03261H125.203H121.126H97.8329H89.0979C86.5744 1.05211 79.664 1.07941 72.21 1.03261C64.7561 0.985807 66.3866 0.81814 68.1337 0.740157H57.0692H51.2458C43.4813 0.64264 26.2052 0.377402 19.2172 0.0965854C14.5585 -0.184231 4.4646 0.213592 0 0.447607C2.13524 0.740124 5.93987 1.33686 4.07639 1.38366C2.21289 1.43047 3.29993 1.67618 4.07639 1.79319L0 2.31972V3.37278V3.7238V4.60136V5.01088L6.40573 5.59592L4.07639 5.77143V6.47347H9.31743H25.0406H51.2458L74.5394 7H112.974H168.296H232.353L244 5.77143V3.7238L240.506 1.79319L227.695 0.740157Z" fill="#FFC100"/>
</svg>
